# xmcd CD database file
#
# Track frame offsets:
#	150
#	12467
#	29971
#	51700
#	71404
#	87368
#	99950
#	117825
#	139070
#
# Disc length: 2144 seconds
#
# Revision: 0
# Processed by: cddbd v1.5.2PL0 Copyright (c) Steve Scherf et al.
# Submitted via: CDex 1.70beta2
#
DISCID=80085e09
DTITLE=Torun Eriksen - Luxury and Waste
DYEAR=2018
DGENRE=Jazz
TTITLE0=Sliding
TTITLE1=Be That Someone
TTITLE2=Turnable
TTITLE3=Dreary Place
TTITLE4=Shopping on a Rainy Day
TTITLE5=Empty Balconies
TTITLE6=Bells
TTITLE7=Glittercard
TTITLE8=A Bird, a Boy
EXTD=YEAR: 2018
EXTT0=
EXTT1=
EXTT2=
EXTT3=
EXTT4=
EXTT5=
EXTT6=
EXTT7=
EXTT8=
PLAYORDER=
